<svg width="300" height="300" viewBox="0 0 300 300" fill="none" xmlns="http://www.w3.org/2000/svg">
<path d="M150.566 293.828C212.227 293.828 262.213 243.898 262.213 182.306C262.213 120.714 212.227 70.7838 150.566 70.7838C88.905 70.7838 38.9189 120.714 38.9189 182.306C38.9189 243.898 88.905 293.828 150.566 293.828Z" fill="url(#paint0_radial)"/>
<path d="M243.161 182.306C243.161 194.381 240.827 205.911 236.606 216.484C235.584 219.046 233.097 220.725 230.336 220.725H70.7964C68.0347 220.725 65.5482 219.046 64.526 216.484C60.3049 205.911 57.9707 194.381 57.9707 182.306C57.9707 177.368 58.3687 172.523 59.1255 167.796C59.6415 164.551 62.4867 162.186 65.7742 162.186H235.363C238.65 162.186 241.495 164.551 242.011 167.796C242.763 172.528 243.161 177.368 243.161 182.306Z" fill="url(#paint1_radial)"/>
<path d="M54.3046 238.783H246.827C242.508 246.117 237.367 252.905 231.539 259.041H69.5922C63.7641 252.905 58.6289 246.117 54.3046 238.783Z" fill="url(#paint2_radial)"/>
<path d="M59.1159 167.801C59.6318 164.556 62.4771 162.19 65.7646 162.19H73.5484C70.2609 162.19 67.4157 164.556 66.8997 167.801C66.1479 172.528 65.7449 177.373 65.7449 182.311C65.7449 191.671 67.1602 200.693 69.7597 209.204C70.7179 211.546 73.2486 212.954 75.8285 212.954H225.235C227.997 212.954 230.724 211.359 231.505 208.714C232.061 206.829 232.562 204.909 233.019 203.01C234.552 196.354 235.383 189.433 235.383 182.315C235.383 177.377 234.985 172.533 234.228 167.806C233.712 164.561 230.867 162.195 227.579 162.195H235.363C238.65 162.195 241.496 164.561 242.012 167.806C242.763 172.533 243.166 177.377 243.166 182.315C243.166 194.39 240.832 205.921 236.611 216.494C235.589 219.056 233.102 220.735 230.341 220.735H222.557H78.5755H70.7965H70.7867C68.025 220.735 65.5385 219.056 64.5164 216.494C60.2952 205.921 57.9611 194.39 57.9611 182.315C57.9611 177.368 58.364 172.528 59.1159 167.801Z" fill="url(#paint3_radial)"/>
<path d="M166.748 212.95C166.748 212.95 155.618 204.149 153.441 202.519C151.264 200.889 149.367 200.801 147.377 202.519C145.387 204.237 134.237 212.95 134.237 212.95H166.748Z" fill="#A08BE8"/>
<path d="M110.866 201.192C115.688 201.12 119.499 194.496 119.378 186.397C119.257 178.297 115.25 171.79 110.428 171.861C105.606 171.933 101.795 178.557 101.916 186.657C102.036 194.756 106.044 201.264 110.866 201.192Z" fill="#512BD4"/>
<path d="M198.235 186.588C198.356 178.489 194.545 171.865 189.723 171.793C184.9 171.721 180.893 178.229 180.772 186.328C180.652 194.428 184.463 201.052 189.285 201.123C194.107 201.195 198.114 194.687 198.235 186.588Z" fill="#512BD4"/>
<path d="M110.575 179.179C107.386 182.365 107.386 187.529 110.575 190.714C112.747 192.884 115.838 193.571 118.595 192.786C119.126 190.847 119.416 188.682 119.381 186.39C119.327 182.713 118.467 179.376 117.096 176.818C114.762 176.612 112.359 177.397 110.575 179.179Z" fill="#8065E0"/>
<path d="M189.392 178.703C186.203 181.889 186.203 187.052 189.392 190.238C191.579 192.422 194.689 193.105 197.461 192.3C197.932 190.547 198.203 188.623 198.237 186.591C198.296 182.62 197.407 179.007 195.918 176.347C193.588 176.136 191.181 176.916 189.392 178.703Z" fill="#8065E0"/>
<path d="M161.2 64.8002H139.627L142.669 42.6725H158.158L161.2 64.8002Z" fill="#D0C5F3"/>
<path d="M150.526 47.11C161.841 47.11 171.013 37.9481 171.013 26.6463C171.013 15.3445 161.841 6.18262 150.526 6.18262C139.212 6.18262 130.04 15.3445 130.04 26.6463C130.04 37.9481 139.212 47.11 150.526 47.11Z" fill="url(#paint4_radial)"/>
<path d="M169.451 78.3233C170.424 78.3233 171.2 77.4839 171.092 76.5169C169.952 66.2875 161.269 58.3308 150.723 58.3308C140.178 58.3308 131.494 66.2875 130.354 76.5169C130.246 77.4839 131.023 78.3233 131.996 78.3233H169.451Z" fill="url(#paint5_radial)"/>
<path d="M168.718 230.679H132.698V266.659H168.718V230.679Z" fill="#512BD4"/>
<path d="M139.116 253.666C138.861 253.666 138.644 253.582 138.468 253.41C138.291 253.239 138.202 253.033 138.202 252.792C138.202 252.547 138.291 252.34 138.468 252.164C138.644 251.992 138.861 251.904 139.116 251.904C139.377 251.904 139.593 251.992 139.77 252.164C139.952 252.336 140.045 252.547 140.045 252.792C140.045 253.033 139.952 253.239 139.77 253.41C139.598 253.582 139.377 253.666 139.116 253.666Z" fill="white"/>
<path d="M149.298 253.524H147.642L143.278 246.652C143.17 246.48 143.077 246.298 143.003 246.112H142.964C142.998 246.313 143.013 246.74 143.013 247.398V253.529H141.548V244.178H143.313L147.529 250.888C147.706 251.167 147.824 251.359 147.873 251.462H147.897C147.853 251.217 147.834 250.794 147.834 250.205V244.178H149.293V253.524H149.298Z" fill="white"/>
<path d="M156.433 253.523H151.308V244.173H156.232V245.488H152.826V248.134H155.966V249.444H152.826V252.208H156.438V253.523H156.433Z" fill="white"/>
<path d="M163.716 245.488H161.092V253.523H159.578V245.488H156.959V244.173H163.716V245.488V245.488Z" fill="white"/>
<path d="M51.9164 195.613C54.0049 195.701 55.8575 197.183 56.3194 199.324C64.0443 234.901 91.9413 263.287 127.391 271.646C129.927 272.245 131.499 274.782 130.9 277.315C130.3 279.848 127.76 281.419 125.224 280.82C86.2558 271.636 55.5921 240.428 47.1007 201.326C46.5503 198.784 48.167 196.275 50.7125 195.721C51.1155 195.627 51.5184 195.593 51.9164 195.613Z" fill="url(#paint6_radial)"/>
<path d="M246.753 166.343C244.665 166.255 242.812 164.773 242.35 162.632C234.625 127.055 206.728 98.6693 171.278 90.3101C168.743 89.7112 167.17 87.1735 167.77 84.6407C168.369 82.1079 170.91 80.5372 173.446 81.136C212.414 90.3199 243.078 121.528 251.569 160.63C252.119 163.172 250.503 165.681 247.957 166.235C247.554 166.329 247.146 166.363 246.753 166.343Z" fill="url(#paint7_radial)"/>
<defs>
<radialGradient id="paint0_radial" cx="0" cy="0" r="1" gradientUnits="userSpaceOnUse" gradientTransform="translate(179.544 114.823) scale(151.903 151.732)">
<stop offset="0.186" stop-color="#A08BE8"/>
<stop offset="0.7272" stop-color="#8065E0"/>
</radialGradient>
<radialGradient id="paint1_radial" cx="0" cy="0" r="1" gradientUnits="userSpaceOnUse" gradientTransform="translate(79.1917 150.335) scale(129.31 129.165)">
<stop offset="0.0933" stop-color="#E1DFDD"/>
<stop offset="0.6573" stop-color="white"/>
</radialGradient>
<radialGradient id="paint2_radial" cx="0" cy="0" r="1" gradientUnits="userSpaceOnUse" gradientTransform="translate(62.755 246.945) scale(68.4433 68.3665)">
<stop offset="0.4614" stop-color="#A08BE8"/>
<stop offset="0.5268" stop-color="#A793EA"/>
<stop offset="0.8352" stop-color="#C5B7F0"/>
<stop offset="1" stop-color="#D0C5F3"/>
</radialGradient>
<radialGradient id="paint3_radial" cx="0" cy="0" r="1" gradientUnits="userSpaceOnUse" gradientTransform="translate(127.344 199.45) scale(93.1962 93.0918)">
<stop stop-color="#512BD4"/>
<stop offset="0.4098" stop-color="#6645D9"/>
<stop offset="0.7102" stop-color="#7659DD"/>
<stop offset="0.9583" stop-color="#8065E0"/>
</radialGradient>
<radialGradient id="paint4_radial" cx="0" cy="0" r="1" gradientUnits="userSpaceOnUse" gradientTransform="translate(151.569 14.891) scale(44.7492 44.699)">
<stop offset="0.1717" stop-color="#A08BE8"/>
<stop offset="0.9987" stop-color="#8065E0"/>
</radialGradient>
<radialGradient id="paint5_radial" cx="0" cy="0" r="1" gradientUnits="userSpaceOnUse" gradientTransform="translate(151.417 63.5602) scale(27.1208 27.0903)">
<stop stop-color="#8065E0"/>
<stop offset="1" stop-color="#512BD4"/>
</radialGradient>
<radialGradient id="paint6_radial" cx="0" cy="0" r="1" gradientUnits="userSpaceOnUse" gradientTransform="translate(88.8973 237.919) rotate(-177.527) scale(42.3666 42.3193)">
<stop stop-color="#BDB9F0"/>
<stop offset="0.3603" stop-color="#C3BCEB" stop-opacity="0.4"/>
<stop offset="0.4662" stop-color="#CEC3E2" stop-opacity="0.3338"/>
<stop offset="0.8089" stop-color="#EDD6C9" stop-opacity="0.1195"/>
<stop offset="1" stop-color="#F9DDBF" stop-opacity="0"/>
</radialGradient>
<radialGradient id="paint7_radial" cx="0" cy="0" r="1" gradientUnits="userSpaceOnUse" gradientTransform="translate(209.637 123.702) rotate(2.47309) scale(42.3666 42.3193)">
<stop stop-color="#BDB9F0"/>
<stop offset="0.5266" stop-color="#C3BCEB" stop-opacity="0.7"/>
<stop offset="0.605" stop-color="#CEC3E2" stop-opacity="0.5841"/>
<stop offset="0.8586" stop-color="#EDD6C9" stop-opacity="0.2092"/>
<stop offset="1" stop-color="#F9DDBF" stop-opacity="0"/>
</radialGradient>
</defs>
</svg>
